#!OML:ASF F:\VICON\USERDATA\INSTALL\rory3\rory3.ASF
:FULLY-SPECIFIED
:DEGREES
2640
root 0.134524 18.7183 -0.566365 3.29082 -1.71417 0.36543
lowerback 7.12754 1.16587 -2.45506
upperback 0.216533 1.31162 -1.00164
thorax -3.80549 0.685614 0.207666
lowerneck -13.8962 -1.47362 -7.93839
upperneck 9.95716 -1.39006 7.32031
head 5.37722 -0.461161 3.4863
rclavicle 1.25234e-014 -1.43125e-014
rhumerus -33.7306 -5.14453 -64.8377
rradius 42.9079
rwrist 7.17206
rhand -38.5863 8.24018
rfingers 7.12502
rthumb -11.6047 -21.4185
lclavicle 1.25234e-014 -1.43125e-014
lhumerus -32.5074 -7.95611 84.5277
lradius 50.4951
lwrist -4.24659
lhand -35.8495 15.1995
lfingers 7.12502
lthumb -8.96454 44.989
rfemur -12.8142 22.8051 14.8331
rtibia 25.4397
rfoot -17.0083 -11.9152
rtoes -2.09248
lfemur -7.17687 -7.07213 -17.1143
ltibia 23.5224
lfoot -19.5275 20.2229
ltoes -4.55125
2641
root 0.142735 18.7173 -0.563919 3.24256 -1.74 0.496747
lowerback 7.148 1.16064 -2.54186
upperback 0.214832 1.29486 -1.05023
thorax -3.81924 0.678528 0.207364
lowerneck -13.7841 -1.42703 -7.89384
upperneck 9.90005 -1.3389 7.29993
head 5.3362 -0.43776 3.47595
rclavicle 2.12203e-014 -3.97569e-015
rhumerus -33.8229 -4.30394 -65.5018
rradius 43.6278
rwrist 7.26915
rhand -38.8234 8.05218
rfingers 7.12502
rthumb -11.8333 -21.5935
lclavicle 2.12203e-014 -3.97569e-015
lhumerus -32.6238 -8.74889 85.1543
lradius 51.314
lwrist -3.82577
lhand -35.6308 14.2827
lfingers 7.12502
lthumb -8.75355 44.0812
rfemur -12.8124 22.8148 14.6761
rtibia 25.5783
rfoot -17.1232 -11.8863
rtoes -2.05968
lfemur -7.137 -6.97218 -17.2971
ltibia 23.5467
lfoot -19.488 20.1839
ltoes -4.70965
2642
root 0.152766 18.7143 -0.564932 3.22765 -1.70863 0.614574
lowerback 7.19831 1.13535 -2.57685
upperback 0.187205 1.25313 -1.11942
thorax -3.87442 0.65848 0.15836
lowerneck -13.6821 -1.39938 -7.76505
upperneck 9.83538 -1.32249 7.23324
head 5.29648 -0.431136 3.43384
rclavicle 8.89561e-015 -7.95139e-016
rhumerus -33.9457 -3.61128 -66.1714
rradius 44.331
rwrist 7.3873
rhand -39.0406 8.0799
rfingers 7.12502
rthumb -12.0428 -21.5536
lclavicle 8.89561e-015 -7.95139e-016
lhumerus -32.8207 -9.59555 85.7341
lradius 52.2009
lwrist -3.24391
lhand -35.6852 13.387
lfingers 7.12502
lthumb -8.806 43.1833
rfemur -12.8631 22.7371 14.5186
rtibia 25.7382
rfoot -17.2261 -11.8277
rtoes -2.15963
lfemur -7.14461 -6.75033 -17.4509
ltibia 23.5613
lfoot -19.3976 20.027
ltoes -4.92476
2643
root 0.159545 18.7108 -0.562854 3.16402 -1.68289 0.645277
lowerback 7.2598 1.10947 -2.59754
upperback 0.200919 1.21448 -1.13241
thorax -3.89398 0.63962 0.159559
lowerneck -13.74 -1.39505 -7.6678
upperneck 9.90217 -1.32762 7.18288
head 5.32634 -0.43257 3.40214
rclavicle -2.37548e-014 -3.97569e-016
rhumerus -34.0017 -2.95098 -66.7726
rradius 44.9689
rwrist 7.6061
rhand -39.1283 8.45511
rfingers 7.12502
rthumb -12.1274 -21.1734
lclavicle -2.37548e-014 -3.97569e-016
lhumerus -32.8858 -10.2546 86.2681
lradius 52.938
lwrist -2.82409
lhand -35.6125 13.1336
lfingers 7.12502
lthumb -8.73586 42.9328
rfemur -12.8406 22.7955 14.4998
rtibia 25.8849
rfoot -17.3369 -11.892
rtoes -2.27759
lfemur -7.10828 -6.48239 -17.4948
ltibia 23.6068
lfoot -19.2938 19.8079
ltoes -5.27131
2644
root 0.164925 18.7067 -0.559829 3.0459 -1.71623 0.651957
lowerback 7.40327 1.09259 -2.63883
upperback 0.200447 1.18413 -1.10796
thorax -3.9757 0.626174 0.208397
lowerneck -13.7228 -1.37064 -7.6553
upperneck 9.92301 -1.29885 7.1808
head 5.32762 -0.418537 3.40206
rclavicle 4.96962e-017 -7.55382e-015
rhumerus -34.1055 -2.05434 -67.3882
rradius 45.7212
rwrist 7.64134
rhand -38.9813 8.4366
rfingers 7.12502
rthumb -11.9856 -21.2002
lclavicle 4.96962e-017 -7.55382e-015
lhumerus -32.936 -10.7032 86.7792
lradius 53.5686
lwrist -2.84374
lhand -35.1245 13.3515
lfingers 7.12502
lthumb -8.26495 43.1698
rfemur -12.7731 22.9585 14.5303
rtibia 26.0312
rfoot -17.3926 -11.9899
rtoes -2.35903
lfemur -7.01157 -6.28636 -17.5175
ltibia 23.6692
lfoot -19.2409 19.6541
ltoes -5.33739
2645
root 0.172011 18.7033 -0.557285 2.9668 -1.78164 0.723563
lowerback 7.47206 1.07524 -2.70876
upperback 0.19385 1.15224 -1.10886
thorax -4.02184 0.612085 0.248696
lowerneck -13.6255 -1.32656 -7.61919
upperneck 9.89869 -1.24449 7.12266
head 5.299 -0.39636 3.38162
rclavicle 3.40419e-014 -9.93923e-015
rhumerus -34.2496 -1.09384 -68.0325
rradius 46.5845
rwrist 7.54502
rhand -38.4354 7.90344
rfingers 7.12502
rthumb -11.4592 -21.7634
lclavicle 3.40419e-014 -9.93923e-015
lhumerus -33.0525 -11.2115 87.3292
lradius 54.1925
lwrist -2.57369
lhand -34.9477 13.6902
lfingers 7.12502
lthumb -8.09426 43.5152
rfemur -12.7554 22.9577 14.4678
rtibia 26.1521
rfoot -17.4091 -11.9824
rtoes -2.5906
lfemur -6.97831 -6.06604 -17.6196
ltibia 23.7632
lfoot -19.1893 19.5515
ltoes -5.64568
2646
root 0.180347 18.7017 -0.553041 2.88709 -1.81292 0.82646
lowerback 7.45125 1.05997 -2.75231
upperback 0.23217 1.12853 -1.14198
thorax -3.96996 0.600105 0.242343
lowerneck -13.5136 -1.30332 -7.62116
upperneck 9.82844 -1.21915 7.13437
head 5.25663 -0.385028 3.38677
rclavicle 2.48481e-016 -3.18055e-015
rhumerus -34.3215 -0.486027 -68.5895
rradius 47.1969
rwrist 7.8223
rhand -38.1431 8.23205
rfingers 7.12502
rthumb -11.1773 -21.4502
lclavicle 2.48481e-016 -3.18055e-015
lhumerus -33.149 -11.8245 87.8588
lradius 54.796
lwrist -2.13587
lhand -35.3014 13.5024
lfingers 7.12502
lthumb -8.43567 43.314
rfemur -12.7022 22.8461 14.3722
rtibia 26.2488
rfoot -17.4285 -11.9061
rtoes -2.87019
lfemur -6.96506 -5.91761 -17.7588
ltibia 23.912
lfoot -19.2686 19.3893
ltoes -5.34093
2647
root 0.187767 18.6988 -0.5495 2.83488 -1.86088 0.737453
lowerback 7.39231 1.05726 -2.63309
upperback 0.300152 1.1403 -1.10851
thorax -3.86481 0.602681 0.210947
lowerneck -13.4487 -1.30537 -7.67982
upperneck 9.69595 -1.21739 7.19307
head 5.20524 -0.383154 3.41374
rclavicle -6.65929e-015 -7.95139e-016
rhumerus -34.2617 0.0323767 -69.096
rradius 47.6402
rwrist 8.12324
rhand -38.2625 8.54998
rfingers 7.12502
rthumb -11.2924 -21.126
lclavicle -6.65929e-015 -7.95139e-016
lhumerus -33.144 -12.3401 88.3055
lradius 55.3186
lwrist -2.24321
lhand -35.2658 13.3816
lfingers 7.12502
lthumb -8.40129 43.1945
rfemur -12.6857 22.9286 14.4748
rtibia 26.3415
rfoot -17.4886 -11.9389
rtoes -2.87319
lfemur -7.00058 -5.68442 -17.6719
ltibia 24.0965
lfoot -19.3021 19.2285
ltoes -5.4909
2648
root 0.195841 18.6945 -0.548364 2.8456 -1.93021 0.51609
lowerback 7.35731 1.04708 -2.4095
upperback 0.314999 1.15095 -1.01378
thorax -3.82737 0.604448 0.183323
lowerneck -13.4291 -1.30838 -7.77964
upperneck 9.67029 -1.21179 7.26336
head 5.1946 -0.379618 3.45276
rclavicle -8.39865e-015 9.54166e-015
rhumerus -34.2461 0.652188 -69.586
rradius 48.113
rwrist 8.19861
rhand -38.3107 8.82105
rfingers 7.12502
rthumb -11.3389 -20.8524
lclavicle -8.39865e-015 9.54166e-015
lhumerus -33.1742 -12.8144 88.7567
lradius 55.7786
lwrist -2.48349
lhand -35.1794 13.5417
lfingers 7.12502
lthumb -8.31789 43.3579
rfemur -12.7567 23.0181 14.6887
rtibia 26.4161
rfoot -17.472 -11.9706
rtoes -2.89486
lfemur -7.12386 -5.39081 -17.4342
ltibia 24.3146
lfoot -19.2541 19.0484
ltoes -6.01121
2649
root 0.203991 18.6902 -0.546075 2.82372 -2.01084 0.454715
lowerback 7.36268 1.03716 -2.38313
upperback 0.299155 1.14233 -0.941606
thorax -3.84755 0.600578 0.243793
lowerneck -13.3538 -1.29922 -7.87351
upperneck 9.70824 -1.19363 7.3028
head 5.19319 -0.373001 3.48249
rclavicle -6.4605e-016 -3.57812e-015
rhumerus -34.3413 1.28345 -69.9967
rradius 48.5564
rwrist 8.55626
rhand -38.2541 9.49525
rfingers 7.12502
rthumb -11.2844 -20.1812
lclavicle -6.4605e-016 -3.57812e-015
lhumerus -33.3379 -13.2847 89.2451
lradius 56.2894
lwrist -2.46944
lhand -35.816 13.4168
lfingers 7.12502
lthumb -8.93224 43.2077
rfemur -12.7836 22.9709 14.7296
rtibia 26.4717
rfoot -17.439 -11.8515
rtoes -2.93288
lfemur -7.19985 -5.11857 -17.3821
ltibia 24.5392
lfoot -19.2116 18.8695
ltoes -6.2874
2650
root 0.212762 18.6863 -0.538701 2.79466 -2.10261 0.454337
lowerback 7.26347 1.03617 -2.37304
upperback 0.319884 1.14649 -0.918949
thorax -3.77075 0.601955 0.26324
lowerneck -13.1963 -1.29893 -7.93597
upperneck 9.65187 -1.19786 7.36052
head 5.15055 -0.37612 3.50976
rclavicle -2.03257e-014 6.36111e-015
rhumerus -34.4524 1.8952 -70.395
rradius 49.025
rwrist 9.09241
rhand -38.0996 9.65068
rfingers 7.12502
rthumb -11.1354 -20.0339
lclavicle -2.03257e-014 6.36111e-015
lhumerus -33.45 -13.6196 89.6054
lradius 56.8024
lwrist -2.76602
lhand -35.9908 13.5278
lfingers 7.12502
lthumb -9.10091 43.3114
rfemur -12.7955 22.8815 14.7101
rtibia 26.5419
rfoot -17.4479 -11.7069
rtoes -3.01822
lfemur -7.2416 -4.91602 -17.4156
ltibia 24.7402
lfoot -19.2403 18.7954
ltoes -6.3553
2651
root 0.224179 18.6832 -0.529083 2.77058 -2.20678 0.477375
lowerback 7.14344 1.04505 -2.31489
upperback 0.349923 1.16716 -0.931313
thorax -3.6713 0.610218 0.21835
lowerneck -13.0978 -1.32193 -7.90035
upperneck 9.63633 -1.23248 7.28451
head 5.13141 -0.398627 3.4763
rclavicle -1.74931e-014 1.27222e-014
rhumerus -34.568 2.4513 -70.8298
rradius 49.4761
rwrist 9.43135
rhand -37.9771 9.66786
rfingers 7.12502
rthumb -11.0172 -20.023
lclavicle -1.74931e-014 1.27222e-014
lhumerus -33.4798 -14.0221 89.9241
lradius 57.1711
lwrist -3.18236
lhand -35.7293 13.2072
lfingers 7.12502
lthumb -8.84862 43.0017
rfemur -12.8087 22.7822 14.6475
rtibia 26.6358
rfoot -17.4729 -11.4674
rtoes -2.99525
lfemur -7.2592 -4.77567 -17.495
ltibia 24.9056
lfoot -19.2797 18.8089
ltoes -6.54357
2652
root 0.234043 18.6782 -0.522773 2.69488 -2.29189 0.47401
lowerback 7.13939 1.03911 -2.26853
upperback 0.395181 1.16448 -0.919582
thorax -3.62135 0.607559 0.20543
lowerneck -13.1726 -1.33139 -7.85188
upperneck 9.70502 -1.24296 7.2153
head 5.16526 -0.405532 3.44628
rclavicle -3.52843e-015 3.97569e-016
rhumerus -34.6133 2.76941 -71.2292
rradius 49.849
rwrist 9.91054
rhand -37.8636 9.7723
rfingers 7.12502
rthumb -10.9077 -19.9244
lclavicle -3.52843e-015 3.97569e-016
lhumerus -33.5229 -14.4073 90.277
lradius 57.4752
lwrist -3.42889
lhand -35.744 12.6047
lfingers 7.12502
lthumb -8.86273 42.3986
rfemur -12.7769 22.6814 14.6496
rtibia 26.7432
rfoot -17.4753 -11.2926
rtoes -3.12727
lfemur -7.23133 -4.60207 -17.5312
ltibia 25.0589
lfoot -19.3629 18.7217
ltoes -6.47039
2653
root 0.241396 18.6737 -0.518383 2.64917 -2.35173 0.440106
lowerback 7.12305 1.0156 -2.25073
upperback 0.427924 1.13755 -0.872515
thorax -3.57828 0.593749 0.247561
lowerneck -13.1212 -1.30788 -7.80686
upperneck 9.62915 -1.21426 7.16822
head 5.13034 -0.393729 3.42529
rclavicle 6.65929e-015 1.59028e-015
rhumerus -34.687 3.05908 -71.5934
rradius 50.2788
rwrist 10.3809
rhand -37.8087 9.91891
rfingers 7.12502
rthumb -10.8547 -19.7806
lclavicle 6.65929e-015 1.59028e-015
lhumerus -33.5862 -14.7484 90.6325
lradius 57.7533
lwrist -3.52042
lhand -35.9344 11.9423
lfingers 7.12502
lthumb -9.04648 41.7283
rfemur -12.7934 22.6299 14.6809
rtibia 26.8494
rfoot -17.4907 -11.2158
rtoes -3.30034
lfemur -7.25154 -4.42745 -17.518
ltibia 25.2295
lfoot -19.4327 18.6172
ltoes -6.5492
